<svg aria-hidden="true" style="position: absolute; width: 0; height: 0; overflow: hidden;" version="1.1"
     xmlns="http://www.w3.org/2000/svg" xmlns:xlink="http://www.w3.org/1999/xlink">
  <defs>
    <symbol id="icon-tree" viewBox="0 0 30 32">
      <path
        d="M29.958 0l-1.92 0.64c-3.291 1.143-6.804 1.494-10.256 1.024-3.627-0.563-7.339-0.063-10.688 1.44-1.775 0.756-3.333 1.944-4.532 3.456s-2.001 3.3-2.332 5.2c-0.337 1.828-0.303 3.705 0.101 5.519s1.169 3.529 2.251 5.041c-0.096 0.336-0.192 0.672-0.272 1.008-0.65 2.763-0.972 5.593-0.96 8.432h3.2c0.15-2.324 0.466-4.633 0.944-6.912 2.22 1.199 4.709 1.81 7.232 1.776 2.353-0.002 4.681-0.475 6.848-1.392 12.176-5.2 10.576-22.496 10.576-23.216l-0.192-2.016zM18.326 22.288c-4.176 1.776-9.168 1.472-11.968-0.72 0.473-1.582 1.123-3.107 1.936-4.544 0.632-1.035 1.378-1.995 2.224-2.864 0.864-0.878 1.837-1.642 2.896-2.272 2.187-1.308 4.613-2.167 7.136-2.528v-1.6c-2.903-0.1-5.788 0.492-8.416 1.728-2.687 1.311-4.966 3.33-6.592 5.84-0.603 0.959-1.138 1.958-1.6 2.992-0.742-1.897-0.952-3.96-0.608-5.968 0.225-1.406 0.805-2.731 1.684-3.85s2.029-1.997 3.34-2.55c1.913-0.894 4-1.353 6.112-1.344 0.992 0 1.968 0.096 2.992 0.176 3.207 0.414 6.463 0.224 9.6-0.56-0.112 4.416-0.912 14.736-8.736 18.064z"></path>
    </symbol>
    <symbol id="icon-hand" viewBox="0 0 34 32">
      <path
        d="M3.368 32h16.202c0.972 0.001 1.932-0.21 2.815-0.616s1.668-0.999 2.3-1.737l8.593-10.024c0.18-0.21 0.306-0.46 0.366-0.73s0.053-0.55-0.020-0.816c-0.073-0.266-0.211-0.51-0.402-0.711s-0.426-0.351-0.688-0.438l-3.315-1.105c-0.801-0.26-1.654-0.319-2.483-0.172s-1.609 0.498-2.271 1.019l-5.364 4.29-1.039-2.080c-0.557-1.121-1.416-2.064-2.481-2.722s-2.293-1.004-3.545-1h-8.667c-1.858 0-3.368 1.511-3.368 3.368v10.105c0 1.858 1.511 3.368 3.368 3.368zM3.368 18.526h8.667c1.285 0 2.439 0.712 3.013 1.861l0.753 1.507h-7.38v3.368h10.129c0.259-0.003 0.514-0.067 0.744-0.185l0.005-0.002 0.007-0.003h0.005l0.003-0.002h0.007l0.002-0.002c0.015 0.005 0.005-0.002 0.005-0.002 0.017 0 0.003-0.002 0.003-0.002h0.002l0.003-0.002 0.005-0.002 0.007-0.003 0.005-0.002 0.003-0.002c0.005 0 0.003-0.002 0.003-0.002l0.005-0.003 0.007-0.003 0.005-0.002 0.003-0.002h0.002l0.003-0.002 0.005-0.002 0.003-0.002c0.015-0.002 0.005-0.002 0.005-0.002l0.003-0.002c0.065-0.039 0.127-0.083 0.185-0.131l6.983-5.587c0.441-0.35 1.049-0.46 1.583-0.281l0.938 0.313-6.961 8.123c-0.32 0.364-0.714 0.655-1.155 0.855s-0.92 0.303-1.405 0.304h-16.202v-10.105zM23.55 0c-0.275 0.003-1.694 0.066-3.34 1.187-1.602-1.091-2.988-1.179-3.315-1.186l-0.051-0.002h-0.007c-1.349 0-2.619 0.527-3.569 1.479-0.953 0.955-1.48 2.223-1.48 3.574s0.527 2.619 1.45 3.544l5.75 6.040c0.158 0.164 0.348 0.295 0.558 0.384s0.436 0.135 0.664 0.135c0.228-0 0.454-0.046 0.663-0.136s0.399-0.22 0.557-0.385l5.72-6.009c0.955-0.953 1.48-2.221 1.48-3.572s-0.527-2.619-1.479-3.572c-0.468-0.471-1.024-0.844-1.637-1.098s-1.27-0.384-1.934-0.382h-0.032zM25.263 5.053c0 0.45-0.175 0.872-0.524 1.221l-4.529 4.758-4.559-4.788c-0.318-0.318-0.493-0.741-0.493-1.191s0.175-0.872 0.495-1.192c0.305-0.31 0.719-0.487 1.154-0.492 0.042 0.002 0.845 0.054 1.797 0.817 0.136 0.109 0.275 0.234 0.416 0.374l1.191 1.191 1.191-1.191c0.141-0.14 0.28-0.264 0.416-0.374 0.891-0.716 1.644-0.805 1.772-0.815 0.219-0 0.437 0.043 0.639 0.128s0.387 0.208 0.541 0.364c0.318 0.318 0.493 0.741 0.493 1.191z"></path>
    </symbol>
    <symbol id="icon-book" viewBox="0 0 29 32">
      <path
        d="M4.8 32h24v-3.2h-23.981c-0.739-0.019-1.619-0.312-1.619-1.6s0.88-1.581 1.619-1.6h23.981v-22.4c0-1.765-1.435-3.2-3.2-3.2h-20.8c-1.93 0-4.8 1.278-4.8 4.8v22.4c0 3.522 2.87 4.8 4.8 4.8zM3.2 4.8c0-1.288 0.88-1.581 1.6-1.6h20.8v19.2h-22.4v-17.6z"></path>
      <path d="M8 6.4h14.4v3.2h-14.4v-3.2z"></path>
    </symbol>
    <symbol id="icon-star-filled" viewBox="0 0 32 32">
      <path
        d="M14.513 1.037c0.55-1.383 2.423-1.383 2.973 0l3.246 8.164c0.232 0.583 0.756 0.982 1.358 1.032l8.426 0.707c1.427 0.12 2.006 1.983 0.919 2.958l-6.419 5.752c-0.459 0.411-0.659 1.056-0.519 1.67l1.961 8.6c0.332 1.457-1.183 2.609-2.405 1.828l-7.213-4.609c-0.515-0.329-1.163-0.329-1.679 0l-7.214 4.609c-1.222 0.781-2.738-0.371-2.405-1.828l1.961-8.6c0.14-0.614-0.060-1.259-0.519-1.67l-6.42-5.752c-1.088-0.975-0.509-2.838 0.919-2.958l8.426-0.707c0.602-0.050 1.126-0.449 1.358-1.032l3.246-8.164z"></path>
    </symbol>
    <symbol id="icon-star" viewBox="0 0 32 32">
      <path stroke-linejoin="miter" stroke-linecap="butt" stroke-miterlimit="4" stroke-width="2.6667"
            d="M16 1.333c0.050 0 0.095 0.014 0.131 0.038 0.031 0.020 0.078 0.062 0.116 0.159l3.246 8.164c0.41 1.030 1.355 1.772 2.486 1.867l8.426 0.707c0.066 0.005 0.104 0.026 0.135 0.053 0.038 0.033 0.080 0.090 0.105 0.172 0.052 0.168 0.008 0.314-0.1 0.411l-6.419 5.751c-0.829 0.743-1.174 1.887-0.93 2.96l1.962 8.6c0.043 0.187-0.028 0.32-0.128 0.396-0.051 0.039-0.098 0.052-0.13 0.055-0.024 0.002-0.065-0.001-0.13-0.043l-7.213-4.608c-0.953-0.609-2.162-0.609-3.115 0l-7.213 4.608c-0.066 0.042-0.106 0.045-0.13 0.043-0.032-0.002-0.079-0.016-0.13-0.055-0.1-0.076-0.17-0.209-0.128-0.396l1.962-8.6c0.245-1.073-0.1-2.216-0.93-2.96l-6.419-5.751c-0.108-0.097-0.152-0.244-0.1-0.411 0.025-0.082 0.068-0.139 0.105-0.172 0.031-0.027 0.070-0.048 0.135-0.053l8.426-0.707c1.13-0.095 2.076-0.837 2.486-1.867l3.246-8.164c0.038-0.096 0.085-0.139 0.116-0.159 0.036-0.024 0.081-0.038 0.131-0.038z"></path>
    </symbol>
    <symbol id="icon-email" viewBox="0 0 39 32">
      <path
        d="M34.909 0h-31.030c-2.139 0-3.879 1.74-3.879 3.879v23.273c0 2.139 1.74 3.879 3.879 3.879h31.030c2.139 0 3.879-1.74 3.879-3.879v-23.273c0-2.139-1.74-3.879-3.879-3.879zM34.909 3.879v0.991l-15.515 12.069-15.515-12.067v-0.993h31.030zM3.879 27.152v-17.369l14.324 11.142c0.34 0.267 0.759 0.412 1.191 0.412s0.851-0.145 1.191-0.412l14.324-11.142 0.004 17.369h-31.034z"></path>
    </symbol>
    <symbol id="icon-tel" viewBox="0 0 32 32">
      <path
        d="M24.143 16.891c-0.152-0.153-0.333-0.274-0.532-0.356s-0.413-0.125-0.628-0.125-0.429 0.043-0.628 0.125c-0.199 0.083-0.38 0.204-0.532 0.356l-2.616 2.616c-1.213-0.361-3.476-1.182-4.91-2.616s-2.255-3.697-2.616-4.91l2.616-2.616c0.152-0.152 0.273-0.333 0.356-0.532s0.125-0.412 0.125-0.628c0-0.216-0.042-0.429-0.125-0.628s-0.204-0.38-0.356-0.532l-6.564-6.564c-0.152-0.153-0.333-0.274-0.532-0.356s-0.412-0.125-0.628-0.125c-0.216 0-0.429 0.043-0.628 0.125s-0.38 0.204-0.532 0.356l-4.45 4.45c-0.624 0.624-0.975 1.48-0.962 2.355 0.038 2.337 0.656 10.453 7.053 16.85s14.513 7.014 16.852 7.053h0.046c0.866 0 1.685-0.341 2.306-0.962l4.45-4.45c0.152-0.152 0.274-0.333 0.356-0.532s0.125-0.413 0.125-0.628-0.043-0.429-0.125-0.628c-0.082-0.199-0.204-0.38-0.356-0.532l-6.564-6.566zM23.935 27.906c-2.048-0.034-9.055-0.584-14.561-6.091-5.524-5.524-6.059-12.556-6.091-14.563l3.29-3.29 4.244 4.244-2.122 2.122c-0.193 0.193-0.335 0.431-0.413 0.692s-0.090 0.538-0.034 0.805c0.039 0.189 1.003 4.664 3.727 7.388s7.199 3.687 7.388 3.727c0.267 0.057 0.544 0.047 0.805-0.031s0.499-0.22 0.691-0.414l2.123-2.122 4.244 4.244-3.292 3.29z"></path>
    </symbol>
    <symbol id="icon-geo" viewBox="0 0 26 32">
      <path
        d="M12.642 18.963c3.486 0 6.321-2.835 6.321-6.321s-2.835-6.321-6.321-6.321c-3.486 0-6.321 2.835-6.321 6.321s2.835 6.321 6.321 6.321zM12.642 9.481c1.743 0 3.161 1.417 3.161 3.161s-1.417 3.16-3.161 3.16c-1.743 0-3.16-1.417-3.16-3.16s1.417-3.161 3.16-3.161z"></path>
      <path
        d="M11.726 31.311c0.267 0.191 0.588 0.294 0.917 0.294s0.649-0.103 0.916-0.294c0.48-0.34 11.771-8.492 11.725-18.669 0-6.971-5.671-12.642-12.642-12.642s-12.642 5.671-12.642 12.634c-0.046 10.185 11.245 18.337 11.725 18.677zM12.642 3.16c5.229 0 9.481 4.252 9.481 9.489 0.033 7.013-6.934 13.31-9.481 15.376-2.546-2.067-9.515-8.366-9.482-15.384 0-5.229 4.252-9.482 9.482-9.482z"></path>
    </symbol>
    <symbol id="icon-Facebook-Icon" viewBox="0 0 32 32">
      <path
        d="M29.333 16.405c0-7.409-5.97-13.415-13.333-13.415s-13.333 6.006-13.333 13.415c0 6.696 4.876 12.245 11.25 13.252v-9.374h-3.385v-3.878h3.385v-2.955c0-3.362 1.991-5.219 5.036-5.219 1.459 0 2.985 0.262 2.985 0.262v3.301h-1.681c-1.656 0-2.173 1.034-2.173 2.095v2.516h3.698l-0.591 3.878h-3.107v9.374c6.374-1.006 11.25-6.556 11.25-13.252z"></path>
    </symbol>
    <symbol id="icon-Instagram-Icon" viewBox="0 0 32 32">
      <path
        d="M15.998 6.161c3.206 0 3.585 0.014 4.846 0.071 1.172 0.052 1.804 0.248 2.226 0.412 0.558 0.216 0.961 0.478 1.378 0.895 0.422 0.422 0.679 0.82 0.9 1.378 0.164 0.422 0.361 1.059 0.412 2.226 0.056 1.266 0.070 1.645 0.070 4.847s-0.014 3.585-0.070 4.847c-0.052 1.172-0.248 1.804-0.412 2.227-0.216 0.558-0.478 0.961-0.895 1.378-0.422 0.422-0.82 0.679-1.378 0.9-0.422 0.164-1.060 0.361-2.226 0.412-1.266 0.056-1.645 0.070-4.847 0.070s-3.585-0.014-4.847-0.070c-1.172-0.052-1.804-0.248-2.226-0.412-0.558-0.216-0.961-0.478-1.378-0.895-0.422-0.422-0.679-0.82-0.9-1.378-0.164-0.422-0.361-1.060-0.412-2.227-0.056-1.266-0.071-1.645-0.071-4.847s0.014-3.585 0.071-4.847c0.052-1.172 0.248-1.804 0.412-2.226 0.216-0.558 0.478-0.961 0.895-1.378 0.422-0.422 0.82-0.679 1.378-0.9 0.422-0.164 1.059-0.361 2.226-0.412 1.261-0.056 1.641-0.071 4.847-0.071h0.001zM15.998 4.001c-3.258 0-3.665 0.014-4.945 0.071-1.275 0.056-2.152 0.262-2.91 0.558-0.792 0.309-1.462 0.717-2.127 1.387-0.67 0.666-1.078 1.336-1.387 2.123-0.295 0.764-0.502 1.636-0.558 2.91-0.056 1.285-0.071 1.692-0.071 4.949s0.014 3.665 0.071 4.945c0.056 1.275 0.262 2.151 0.558 2.91 0.31 0.792 0.717 1.462 1.387 2.127 0.665 0.665 1.336 1.078 2.123 1.383 0.764 0.296 1.636 0.502 2.91 0.558 1.279 0.056 1.687 0.070 4.945 0.070s3.666-0.014 4.945-0.070c1.275-0.056 2.151-0.262 2.91-0.558 0.787-0.304 1.458-0.717 2.123-1.383s1.078-1.336 1.383-2.123c0.295-0.764 0.502-1.636 0.558-2.91 0.056-1.279 0.070-1.687 0.070-4.945s-0.014-3.665-0.070-4.945c-0.056-1.275-0.262-2.151-0.558-2.91-0.296-0.797-0.703-1.467-1.373-2.133-0.665-0.665-1.336-1.078-2.123-1.383-0.764-0.295-1.636-0.502-2.91-0.558-1.284-0.061-1.692-0.075-4.949-0.075l-0.001 0.001z"></path>
      <path
        d="M15.998 9.835c-3.402 0-6.163 2.76-6.163 6.163s2.76 6.163 6.163 6.163c3.403 0 6.164-2.76 6.164-6.163s-2.76-6.163-6.163-6.163zM15.998 19.997c-2.208 0-3.998-1.79-3.998-3.998s1.79-3.998 3.998-3.998c2.208 0 3.998 1.79 3.998 3.998s-1.79 3.998-3.998 3.998z"></path>
      <path
        d="M23.843 9.592c0 0.795-0.644 1.439-1.439 1.439s-1.439-0.644-1.439-1.439c0-0.795 0.644-1.439 1.439-1.439s1.439 0.644 1.439 1.439z"></path>
    </symbol>
    <symbol id="icon-Linkedin-Icon" viewBox="0 0 32 32">
      <path
        d="M25.75 4h-19.5c-1.237 0-2.25 1.013-2.25 2.25v19.5c0 1.238 1.013 2.25 2.25 2.25h19.5c1.238 0 2.25-1.012 2.25-2.25v-19.5c0-1.237-1.012-2.25-2.25-2.25zM13 23.5h-3v-10.5h3v10.5zM11.5 11.5c-0.829 0-1.5-0.671-1.5-1.5s0.671-1.5 1.5-1.5c0.829 0 1.5 0.671 1.5 1.5s-0.671 1.5-1.5 1.5zM23.5 23.5h-3v-6c0-0.829-0.671-1.5-1.5-1.5s-1.5 0.671-1.5 1.5v6h-3v-10.5h3v1.861c0.619-0.848 1.565-1.861 2.625-1.861 1.866 0 3.375 1.678 3.375 3.75v6.75z"></path>
    </symbol>
    <symbol id="logo" viewBox="0 0 149 47" fill="none" xmlns="http://www.w3.org/2000/svg">
      <path fill-rule="evenodd" clip-rule="evenodd"
            d="M28.7539 11.2306L28.7798 11.252L29.0412 11.4697L29.2511 11.6448L30.1804 12.4179L30.1821 34.0135C25.2325 38.1005 20.2519 42.1501 15.2414 46.1612C14.9234 46.1296 6.67073 39.3422 2.47849 35.8941L2.36141 35.7978C1.287 34.9143 0.49728 34.2649 0.20524 34.029L0.190552 12.4297L15.1161 0.200317C15.6026 0.269223 24.9202 8.03482 28.7539 11.2306ZM22.3087 15.6427L22.2918 15.6157L22.2892 15.6108L22.2659 15.5733C19.813 11.6043 15.5162 4.65239 15.1485 4.38856L6.48799 18.1877L6.50743 27.7671L8.24887 30.6246C9.01137 30.7332 9.78035 30.8574 10.5519 30.982C12.1171 31.235 13.6926 31.4895 15.2466 31.6187L16.1862 31.4785L17.3194 31.3075C18.92 31.0655 20.521 30.8235 22.1246 30.6091L23.8717 27.8957L23.8708 18.1606C23.6626 17.8338 23.0803 16.8914 22.3087 15.6427ZM24.518 19.3193C25.1276 20.0812 25.6512 21.0154 26.1583 21.9205C26.3048 22.1812 26.4495 22.4394 26.5947 22.6905C26.6668 22.8153 26.739 22.9384 26.8115 23.059L26.5208 23.5337L26.2188 24.0245C25.9553 24.4507 25.6905 24.8759 25.4235 25.3001L24.5016 26.7958C24.5007 26.0767 24.4947 25.3562 24.4886 24.6352C24.4739 22.8622 24.4597 21.0861 24.518 19.3193ZM17.608 2.89756C16.8917 2.26841 16.013 1.497 15.4859 1.27219L15.5019 1.98112C15.5149 2.53785 15.5278 3.09469 15.5326 3.65128C18.2836 8.09098 21.0576 12.5166 23.8544 16.9278C23.854 16.7921 23.8479 16.5798 23.8406 16.3195V16.3062V16.2925V16.2853V16.2764C23.8073 15.0335 23.7469 12.7732 24.0639 12.4401C24.0722 12.431 24.0812 12.4227 24.0912 12.4146L24.1149 12.3953L24.1387 12.376L24.4182 12.4982C24.6338 13.4804 24.5819 15.0125 24.5357 16.3776L24.5348 16.3975L24.5322 16.4809C24.5137 17.0496 24.4964 17.5858 24.5016 18.0364C24.8692 18.6516 25.2464 19.2632 25.6239 19.8752C26.2797 20.938 26.936 22.0019 27.5442 23.0879L24.5059 27.9666L24.5132 31.0933V33.5009L29.5522 33.5037L29.5414 12.7246C25.8482 9.61733 22.1186 6.5544 18.3523 3.53653L18.2361 3.4414L18.1294 3.35157C17.973 3.2184 17.7963 3.06288 17.608 2.89756ZM14.7606 1.31156L14.8327 1.37342C14.9783 1.80575 14.9377 2.47313 14.9027 3.05103C14.8897 3.26312 14.8777 3.46317 14.8755 3.63511L6.46984 17.0497C6.472 16.8422 6.47805 16.6232 6.48626 16.3966L6.49403 16.1886L6.51088 15.7823C6.55365 14.7686 6.59944 13.6797 6.48669 12.8273C6.45515 12.5884 6.38387 12.5021 6.19897 12.3624L6.00456 12.3992C5.7108 12.8562 5.79504 15.6849 5.84083 17.226L5.85422 17.7026C5.85811 17.8423 5.8607 17.9587 5.86157 18.0458C4.85282 19.6946 3.8579 21.3515 2.87594 23.0163L5.86762 27.9223L5.85509 30.7278L5.84515 33.5046L0.821289 33.4973L0.840297 12.7356C3.83327 10.1539 6.91957 7.6627 10.0033 5.17385C11.5944 3.88986 13.1846 2.60646 14.7606 1.31156ZM11.5356 31.7557C10.5904 31.5872 9.64599 31.4189 8.70637 31.3427L9.43301 32.5094C11.3701 35.6182 13.312 38.7357 15.1645 41.8915C16.1037 40.3765 17.0338 38.8561 17.9531 37.3302C18.3692 36.6596 18.7817 35.9862 19.1943 35.3128C20.0112 33.9788 20.829 32.6445 21.6736 31.3299C21.1474 31.4045 20.5215 31.5124 19.8553 31.6274C18.202 31.9127 16.2998 32.241 15.0565 32.2071C13.8888 32.1752 12.712 31.9654 11.5356 31.7557ZM6.47459 31.0056L7.89764 31.2112C8.85152 32.7934 9.82182 34.3659 10.7921 35.9385L10.796 35.9454L10.8219 35.9877C12.1819 38.1928 13.5419 40.3982 14.8573 42.6306C14.8565 42.9784 14.8573 43.3262 14.8604 43.6741C14.8643 44.1728 14.8716 44.6715 14.8828 45.1698L12.0462 42.8481L1.33884 34.114C2.54026 34.1307 3.74298 34.1271 4.94527 34.1235C5.45289 34.122 5.9605 34.1204 6.46768 34.1204C6.49576 33.0833 6.47675 32.0435 6.47459 31.0056ZM23.5183 31.0526L23.4652 31.0577L22.4802 31.2094L15.514 42.5466L15.4868 45.1616C15.9356 44.7957 16.3849 44.431 16.8355 44.0675C17.3993 43.6122 17.9648 43.1586 18.5312 42.7065C22.0564 39.8777 25.5531 37.0141 29.0213 34.1149L23.8782 34.1204C23.8812 33.8908 23.8907 33.6514 23.9006 33.4072L23.9019 33.386C23.9335 32.6276 23.9667 31.8254 23.8151 31.1344C23.6799 31.0329 23.6626 31.035 23.5585 31.0478L23.5183 31.0526ZM5.86589 26.4861L5.86373 26.719L5.11937 25.503C4.80314 24.9216 4.44975 24.3516 4.09767 23.7841C3.94085 23.531 3.78446 23.2784 3.63152 23.0256C4.06613 22.2099 4.5435 21.4121 5.02044 20.6155L5.38506 20.0056C5.50516 19.8032 5.62483 19.6005 5.74277 19.3974C5.99204 19.7767 5.91773 23.6921 5.87971 25.6931C5.87367 26.0143 5.86848 26.2861 5.86589 26.4861ZM23.1952 30.3649L23.3243 30.1343C23.5516 29.727 23.7801 29.3178 24.0747 28.955C24.1011 29.3297 24.0735 29.8398 24.0061 30.1466C23.6367 30.2822 23.4868 30.3302 23.1952 30.3649ZM6.51175 29.0831C6.86211 29.5144 7.11829 30.0115 7.39089 30.493C7.29066 30.4811 7.24487 30.4773 7.19994 30.4687C7.1144 30.4523 7.03232 30.418 6.58 30.2746C6.51175 29.8398 6.48496 29.4578 6.51175 29.0831Z"
            fill="black"/>
      <path
        d="M22.2918 15.6157L22.3087 15.6427C23.0803 16.8914 23.6626 17.8338 23.8708 18.1606L23.8717 27.8957L22.1246 30.609C20.521 30.8235 18.92 31.0655 17.3194 31.3075L16.1862 31.4785L15.2466 31.6187C13.6926 31.4895 12.1171 31.235 10.5519 30.982C9.78035 30.8574 9.01137 30.7332 8.24887 30.6246L6.50743 27.7671L6.48799 18.1877L15.1485 4.38856M22.2918 15.6157L22.2892 15.6108L22.2659 15.5733C19.813 11.6043 15.5162 4.65239 15.1485 4.38856M22.2918 15.6157C21.6792 14.6241 20.9487 13.442 20.1923 12.2229C17.9259 8.57141 15.425 4.58707 15.1485 4.38856M23.8544 16.9278C21.0576 12.5166 18.2836 8.09098 15.5326 3.65128C15.5278 3.09469 15.5149 2.53785 15.5019 1.98112L15.4859 1.27219C16.013 1.497 16.8917 2.26841 17.608 2.89756C17.7963 3.06288 17.973 3.2184 18.1294 3.35157L18.2361 3.4414L18.3523 3.53653C22.1186 6.5544 25.8482 9.61733 29.5414 12.7246L29.5522 33.5037L24.5132 33.5009V31.0933L24.5059 27.9666L27.5442 23.0879C26.936 22.0019 26.2797 20.938 25.6239 19.8752C25.2464 19.2632 24.8692 18.6516 24.5016 18.0364M23.8544 16.9278C23.854 16.7921 23.8479 16.5798 23.8406 16.3195M23.8544 16.9278C23.8544 16.9256 23.8544 16.9235 23.8544 16.9214C23.8544 16.7854 23.8479 16.5757 23.8406 16.3195M23.8406 16.3195V16.3062V16.2925V16.2853V16.2764C23.8073 15.0335 23.7469 12.7732 24.0639 12.4401C24.0722 12.431 24.0812 12.4227 24.0912 12.4146L24.1149 12.3953L24.1387 12.376L24.4182 12.4982C24.6338 13.4804 24.5819 15.0125 24.5357 16.3776M24.5357 16.3776L24.5348 16.3975L24.5322 16.4809C24.5137 17.0496 24.4964 17.5858 24.5016 18.0364M24.5357 16.3776C24.5327 16.4666 24.5301 16.5563 24.5271 16.6437C24.5106 17.1518 24.4968 17.629 24.5016 18.0364M7.19994 30.4687C7.24487 30.4773 7.29066 30.4811 7.39089 30.493C7.11829 30.0115 6.86211 29.5144 6.51175 29.0831C6.48496 29.4578 6.51175 29.8398 6.58 30.2746M7.19994 30.4687C7.1144 30.4523 7.03232 30.418 6.58 30.2746M7.19994 30.4687C7.11527 30.4525 7.03578 30.4193 6.59685 30.28C6.59124 30.2782 6.58562 30.2764 6.58 30.2746M28.7539 11.2306L28.7798 11.252L29.0412 11.4697L29.2511 11.6448L30.1804 12.4179L30.1821 34.0135C25.2325 38.1005 20.2519 42.1501 15.2414 46.1612C14.9234 46.1296 6.67073 39.3422 2.47849 35.8941L2.36141 35.7978C1.287 34.9143 0.49728 34.2649 0.20524 34.029L0.190552 12.4297L15.1161 0.200317C15.6026 0.269223 24.9202 8.03482 28.7539 11.2306ZM24.518 19.3193C25.1276 20.0812 25.6512 21.0154 26.1583 21.9205C26.3048 22.1812 26.4495 22.4394 26.5947 22.6905C26.6668 22.8153 26.739 22.9384 26.8115 23.059L26.5208 23.5337L26.2188 24.0245C25.9553 24.4507 25.6905 24.8759 25.4235 25.3001L24.5016 26.7958C24.5007 26.0767 24.4947 25.3562 24.4886 24.6352C24.4739 22.8622 24.4597 21.0861 24.518 19.3193ZM14.7606 1.31156L14.8327 1.37342C14.9783 1.80575 14.9377 2.47313 14.9027 3.05103C14.8897 3.26312 14.8777 3.46317 14.8755 3.63511L6.46984 17.0497C6.472 16.8422 6.47805 16.6232 6.48626 16.3966L6.49403 16.1886L6.51088 15.7823C6.55365 14.7686 6.59944 13.6797 6.48669 12.8273C6.45515 12.5884 6.38387 12.5021 6.19897 12.3624L6.00456 12.3992C5.7108 12.8562 5.79504 15.6849 5.84083 17.226L5.85422 17.7026C5.85811 17.8423 5.8607 17.9587 5.86157 18.0458C4.85282 19.6946 3.8579 21.3515 2.87594 23.0163L5.86762 27.9223L5.85509 30.7278L5.84515 33.5046L0.821289 33.4973L0.840297 12.7356C3.83327 10.1539 6.91957 7.6627 10.0033 5.17385C11.5944 3.88986 13.1846 2.60646 14.7606 1.31156ZM11.5356 31.7557C10.5904 31.5872 9.64599 31.4189 8.70637 31.3427L9.43301 32.5094C11.3701 35.6182 13.312 38.7357 15.1645 41.8915C16.1037 40.3765 17.0338 38.8561 17.9531 37.3302C18.3692 36.6596 18.7817 35.9862 19.1943 35.3128C20.0112 33.9788 20.829 32.6445 21.6736 31.3299C21.1474 31.4045 20.5215 31.5124 19.8553 31.6274C18.202 31.9127 16.2998 32.241 15.0565 32.2071C13.8888 32.1752 12.712 31.9654 11.5356 31.7557ZM6.47459 31.0056L7.89764 31.2112C8.85152 32.7934 9.82182 34.3659 10.7921 35.9385L10.796 35.9454L10.8219 35.9877C12.1819 38.1928 13.5419 40.3982 14.8573 42.6306C14.8565 42.9784 14.8573 43.3262 14.8604 43.6741C14.8643 44.1728 14.8716 44.6715 14.8828 45.1698L12.0462 42.8481L1.33884 34.114C2.54026 34.1307 3.74298 34.1271 4.94527 34.1235C5.45289 34.122 5.9605 34.1204 6.46768 34.1204C6.49576 33.0833 6.47675 32.0435 6.47459 31.0056ZM23.5183 31.0526L23.4652 31.0577L22.4802 31.2094L15.514 42.5466L15.4868 45.1616C15.9356 44.7957 16.3849 44.431 16.8355 44.0675C17.3993 43.6122 17.9648 43.1586 18.5312 42.7065C22.0564 39.8777 25.5531 37.0141 29.0213 34.1149L23.8782 34.1204C23.8812 33.8908 23.8907 33.6514 23.9006 33.4072L23.9019 33.386C23.9335 32.6276 23.9667 31.8254 23.8151 31.1344C23.6799 31.0329 23.6626 31.035 23.5585 31.0478L23.5183 31.0526ZM5.86589 26.4861L5.86373 26.719L5.11937 25.503C4.80314 24.9216 4.44975 24.3516 4.09767 23.7841C3.94085 23.531 3.78446 23.2784 3.63152 23.0256C4.06613 22.2099 4.5435 21.4121 5.02044 20.6155L5.38506 20.0056C5.50516 19.8032 5.62483 19.6005 5.74277 19.3974C5.99204 19.7767 5.91773 23.6921 5.87971 25.6931C5.87367 26.0143 5.86848 26.2861 5.86589 26.4861ZM23.1952 30.3649L23.3243 30.1344C23.5516 29.727 23.7801 29.3178 24.0747 28.955C24.1011 29.3297 24.0735 29.8398 24.0061 30.1466C23.6367 30.2822 23.4868 30.3302 23.1952 30.3649Z"
        stroke="black" stroke-width="0.380952"/>
      <path fill-rule="evenodd" clip-rule="evenodd"
            d="M22.3086 15.6426C22.0028 15.148 21.6675 14.6053 21.3141 14.0339C21.6611 14.5949 21.9907 15.1283 22.2918 15.6156L22.3086 15.6426Z"
            fill="black" stroke="black" stroke-width="0.380952"/>
      <path fill-rule="evenodd" clip-rule="evenodd"
            d="M23.8539 16.9277C23.8535 16.7873 23.8474 16.565 23.8401 16.2924V16.3061C23.8474 16.5725 23.8535 16.7897 23.8539 16.9277Z"
            fill="black"/>
      <path
        d="M23.8401 16.3061V16.2924C23.8474 16.565 23.8535 16.7873 23.8539 16.9277C23.8535 16.7897 23.8474 16.5725 23.8401 16.3061ZM23.8401 16.3061V16.3194C23.8474 16.5757 23.8539 16.7852 23.8539 16.9212"
        stroke="black" stroke-width="0.380952"/>
      <path fill-rule="evenodd" clip-rule="evenodd"
            d="M6.49156 16.247C6.48076 16.5269 6.47212 16.7969 6.46952 17.0496C6.47168 16.8422 6.47773 16.6231 6.48594 16.3965C6.48767 16.3475 6.48983 16.2967 6.49156 16.247ZM5.86125 18.0457C5.85996 17.8726 5.85132 17.584 5.84052 17.2259L5.85391 17.7025C5.8578 17.8422 5.86039 17.9586 5.86125 18.0457Z"
            fill="black" stroke="black" stroke-width="0.380952"/>
      <path fill-rule="evenodd" clip-rule="evenodd"
            d="M23.881 33.9741C23.8857 33.783 23.8939 33.586 23.9022 33.386L23.9009 33.4071C23.8931 33.6006 23.8853 33.7892 23.881 33.9741Z"
            fill="black"/>
      <path
        d="M23.9009 33.4071L23.9022 33.386C23.8939 33.586 23.8857 33.783 23.881 33.9741C23.8853 33.7892 23.8931 33.6006 23.9009 33.4071ZM23.9009 33.4071C23.8957 33.5318 23.8905 33.6545 23.8866 33.776C23.8844 33.8376 23.8827 33.8995 23.8814 33.9601"
        stroke="black" stroke-width="0.380952"/>
      <path fill-rule="evenodd" clip-rule="evenodd"
            d="M5.74238 19.3973C5.60024 19.6421 5.45595 19.8862 5.31036 20.1301L5.38467 20.0054C5.50477 19.803 5.62444 19.6004 5.74238 19.3973ZM5.86334 26.7189C5.86334 26.4741 5.875 25.9234 5.88796 25.2277C5.88494 25.3915 5.88192 25.5473 5.87932 25.693C5.87025 26.1658 5.86334 26.5317 5.86334 26.7189Z"
            fill="black" stroke="black" stroke-width="0.380952"/>
      <path
        d="M99.6571 43.0256V41.5962H101.108C101.606 41.5962 102.032 41.5322 102.388 41.4042C102.743 41.2905 103.042 41.0842 103.284 40.7856C103.526 40.4869 103.732 40.0745 103.902 39.5482L107.7 27.3456H109.257L105.289 39.9962C105.062 40.7216 104.749 41.3047 104.35 41.7456C103.952 42.2007 103.476 42.5278 102.921 42.7269C102.366 42.926 101.734 43.0256 101.022 43.0256H99.6571ZM103.326 38.3536V37.0096H105.353V38.3536H103.326ZM103.134 38.3536L99.0385 27.3456H100.681L104.628 38.3536H103.134Z"
        fill="black"/>
      <path
        d="M91.8937 38.6308V27.3455H93.1737V32.0601H93.0457C93.0457 30.4104 93.4084 29.1944 94.1337 28.4121C94.8591 27.6157 95.9968 27.2175 97.5471 27.2175H97.9097V28.6681H97.2484C96.0253 28.6681 95.0937 28.9881 94.4537 29.6281C93.8137 30.2539 93.4937 31.1784 93.4937 32.4015V38.6308H91.8937Z"
        fill="black"/>
      <path d="M86.3601 38.6309V23.0576H87.9601V38.6309H86.3601ZM84.7174 24.3589V23.0576H87.9601V24.3589H84.7174Z"
            fill="black"/>
      <path
        d="M78.1815 38.9935C77.2144 38.9935 76.3753 38.8299 75.6642 38.5028C74.9531 38.1615 74.37 37.7135 73.9149 37.1588C73.4597 36.5899 73.1184 35.957 72.8909 35.2602C72.6775 34.5633 72.5709 33.845 72.5709 33.1055V32.8068C72.5709 32.0815 72.6775 31.3704 72.8909 30.6735C73.1184 29.9766 73.4597 29.3508 73.9149 28.7962C74.37 28.2415 74.9389 27.8006 75.6215 27.4735C76.3184 27.1322 77.1291 26.9615 78.0535 26.9615C79.234 26.9615 80.2153 27.2246 80.9975 27.7508C81.794 28.277 82.3913 28.9526 82.7895 29.7775C83.1878 30.5882 83.3869 31.4628 83.3869 32.4015V33.2335H73.2962V31.9962H82.2775L81.8722 32.6148C81.8722 31.7757 81.7229 31.0433 81.4242 30.4175C81.1398 29.7775 80.7131 29.2797 80.1442 28.9242C79.5895 28.5544 78.8926 28.3695 78.0535 28.3695C77.1718 28.3695 76.4393 28.5757 75.8562 28.9882C75.2731 29.4006 74.8322 29.9482 74.5335 30.6308C74.2491 31.3135 74.1069 32.0886 74.1069 32.9562C74.1069 33.8095 74.2491 34.5917 74.5335 35.3028C74.8322 35.9997 75.2802 36.5544 75.8775 36.9668C76.4891 37.3793 77.2571 37.5855 78.1815 37.5855C79.1629 37.5855 79.9593 37.365 80.5709 36.9242C81.1824 36.469 81.5593 35.9357 81.7015 35.3242H83.1949C83.0526 36.0779 82.754 36.7322 82.2989 37.2868C81.8438 37.8273 81.2678 38.2468 80.5709 38.5455C79.874 38.8442 79.0775 38.9935 78.1815 38.9935Z"
        fill="black"/>
      <path
        d="M49.112 39.9064C48.1449 39.9064 47.3058 39.7428 46.5947 39.4157C45.8836 39.0744 45.3005 38.6264 44.8453 38.0717C44.3902 37.5028 44.0489 36.8699 43.8213 36.1731C43.608 35.4762 43.5013 34.7579 43.5013 34.0184V33.7197C43.5013 32.9944 43.608 32.2833 43.8213 31.5864C44.0489 30.8895 44.3902 30.2637 44.8453 29.7091C45.3005 29.1544 45.8693 28.7135 46.552 28.3864C47.2489 28.0451 48.0596 27.8744 48.984 27.8744C50.1645 27.8744 51.1458 28.1375 51.928 28.6637C52.7245 29.1899 53.3218 29.8655 53.72 30.6904C54.1182 31.5011 54.3173 32.3757 54.3173 33.3144V34.1464H44.2267V32.9091H53.208L52.8027 33.5277C52.8027 32.6886 52.6533 31.9562 52.3547 31.3304C52.0702 30.6904 51.6436 30.1926 51.0747 29.8371C50.52 29.4673 49.8231 29.2824 48.984 29.2824C48.1022 29.2824 47.3698 29.4886 46.7867 29.9011C46.2036 30.3135 45.7627 30.8611 45.464 31.5437C45.1796 32.2264 45.0373 33.0015 45.0373 33.8691C45.0373 34.7224 45.1796 35.5046 45.464 36.2157C45.7627 36.9126 46.2107 37.4673 46.808 37.8797C47.4196 38.2922 48.1876 38.4984 49.112 38.4984C50.0933 38.4984 50.8898 38.2779 51.5013 37.8371C52.1129 37.3819 52.4898 36.8486 52.632 36.2371H54.1253C53.9831 36.9908 53.6845 37.6451 53.2293 38.1997C52.7742 38.7402 52.1982 39.1597 51.5013 39.4584C50.8045 39.7571 50.008 39.9064 49.112 39.9064Z"
        fill="black"/>
      <path
        d="M35.9351 43.8744V42.4451H37.2151C37.7698 42.4451 38.1893 42.2815 38.4738 41.9544C38.7725 41.6415 38.9218 41.1864 38.9218 40.5891V28.2584H40.4578V40.2904C40.4578 41.1722 40.3369 41.8762 40.0951 42.4024C39.8676 42.9286 39.4978 43.3055 38.9858 43.5331C38.4738 43.7606 37.7911 43.8744 36.9378 43.8744H35.9351ZM37.0871 29.5384V28.2584H40.4578V29.5384H37.0871ZM39.2205 25.9757C38.8365 25.9757 38.5449 25.8762 38.3458 25.6771C38.1609 25.4637 38.0685 25.2006 38.0685 24.8877C38.0685 24.5749 38.1609 24.3189 38.3458 24.1197C38.5449 23.9064 38.8365 23.7997 39.2205 23.7997C39.6045 23.7997 39.8889 23.9064 40.0738 24.1197C40.2587 24.3189 40.3511 24.5749 40.3511 24.8877C40.3511 25.2006 40.2587 25.4637 40.0738 25.6771C39.8889 25.8762 39.6045 25.9757 39.2205 25.9757Z"
        fill="black"/>
      <path
        d="M142.353 21.7301C141.386 21.7301 140.547 21.5665 139.835 21.2394C139.124 20.8981 138.541 20.4501 138.086 19.8954C137.631 19.3265 137.29 18.6936 137.062 17.9967C136.849 17.2998 136.742 16.5816 136.742 15.8421V15.5434C136.742 14.8181 136.849 14.1069 137.062 13.4101C137.29 12.7132 137.631 12.0874 138.086 11.5327C138.541 10.9781 139.11 10.5372 139.793 10.2101C140.49 9.86873 141.3 9.69806 142.225 9.69806C143.405 9.69806 144.387 9.96117 145.169 10.4874C145.965 11.0136 146.563 11.6892 146.961 12.5141C147.359 13.3247 147.558 14.1994 147.558 15.1381V15.9701H137.467V14.7327H146.449L146.043 15.3514C146.043 14.5123 145.894 13.7798 145.595 13.1541C145.311 12.5141 144.884 12.0163 144.315 11.6607C143.761 11.2909 143.064 11.1061 142.225 11.1061C141.343 11.1061 140.611 11.3123 140.027 11.7247C139.444 12.1372 139.003 12.6847 138.705 13.3674C138.42 14.0501 138.278 14.8252 138.278 15.6927C138.278 16.5461 138.42 17.3283 138.705 18.0394C139.003 18.7363 139.451 19.2909 140.049 19.7034C140.66 20.1158 141.428 20.3221 142.353 20.3221C143.334 20.3221 144.131 20.1016 144.742 19.6607C145.354 19.2056 145.731 18.6723 145.873 18.0607H147.366C147.224 18.8145 146.925 19.4687 146.47 20.0234C146.015 20.5638 145.439 20.9834 144.742 21.2821C144.045 21.5807 143.249 21.7301 142.353 21.7301Z"
        fill="black"/>
      <path
        d="M127.897 21.7301C127.072 21.7301 126.319 21.5807 125.636 21.2821C124.968 20.9692 124.384 20.5425 123.887 20.0021C123.403 19.4474 123.026 18.8216 122.756 18.1247C122.5 17.4136 122.372 16.6598 122.372 15.8634V15.5647C122.372 14.7967 122.5 14.0643 122.756 13.3674C123.012 12.6563 123.375 12.0305 123.844 11.4901C124.328 10.9354 124.904 10.5016 125.572 10.1887C126.255 9.86162 127.016 9.69807 127.855 9.69807C128.808 9.69807 129.647 9.90429 130.372 10.3167C131.097 10.7292 131.68 11.3265 132.121 12.1087C132.562 12.8767 132.797 13.8225 132.825 14.9461L132.121 13.6234V5.79407H133.721V21.3674H132.441V16.3541H132.953C132.925 17.5345 132.676 18.5301 132.207 19.3407C131.752 20.1372 131.147 20.7345 130.393 21.1327C129.654 21.531 128.822 21.7301 127.897 21.7301ZM128.111 20.3221C128.879 20.3221 129.568 20.1514 130.18 19.8101C130.806 19.4687 131.296 18.9852 131.652 18.3594C132.008 17.7194 132.185 16.987 132.185 16.1621V15.1381C132.185 14.3416 132.008 13.6447 131.652 13.0474C131.296 12.4358 130.806 11.9594 130.18 11.6181C129.568 11.2767 128.872 11.1061 128.089 11.1061C127.25 11.1061 126.518 11.3123 125.892 11.7247C125.28 12.123 124.804 12.6705 124.463 13.3674C124.136 14.0643 123.972 14.8465 123.972 15.7141C123.972 16.6101 124.143 17.4065 124.484 18.1034C124.825 18.8003 125.309 19.3478 125.935 19.7461C126.56 20.1301 127.286 20.3221 128.111 20.3221Z"
        fill="black"/>
      <path
        d="M118.205 21.3674V17.9754H117.949V13.9648C117.949 13.1257 117.729 12.4857 117.288 12.0448C116.847 11.5897 116.164 11.3621 115.24 11.3621C114.813 11.3621 114.379 11.3692 113.938 11.3834C113.512 11.3977 113.099 11.419 112.701 11.4474C112.317 11.4617 111.976 11.483 111.677 11.5114V10.1034C111.99 10.075 112.31 10.0465 112.637 10.0181C112.964 9.98966 113.298 9.97543 113.64 9.97543C113.995 9.96121 114.337 9.9541 114.664 9.9541C115.816 9.9541 116.74 10.0963 117.437 10.3808C118.148 10.6652 118.667 11.1132 118.994 11.7248C119.321 12.3221 119.485 13.1185 119.485 14.1141V21.3674H118.205ZM114.386 21.6661C113.59 21.6661 112.886 21.5239 112.274 21.2394C111.663 20.955 111.186 20.5425 110.845 20.0021C110.518 19.4617 110.354 18.8074 110.354 18.0394C110.354 17.2857 110.525 16.6457 110.866 16.1194C111.222 15.5932 111.727 15.195 112.381 14.9248C113.049 14.6403 113.853 14.4981 114.792 14.4981H118.098V15.7141H114.685C113.789 15.7141 113.099 15.9345 112.616 16.3754C112.146 16.8021 111.912 17.3639 111.912 18.0608C111.912 18.7719 112.161 19.3408 112.658 19.7674C113.156 20.1799 113.832 20.3861 114.685 20.3861C115.211 20.3861 115.716 20.2937 116.2 20.1088C116.683 19.9097 117.089 19.5825 117.416 19.1274C117.743 18.6581 117.921 18.0181 117.949 17.2074L118.418 17.8688C118.361 18.7079 118.162 19.4119 117.821 19.9808C117.48 20.5354 117.017 20.955 116.434 21.2394C115.851 21.5239 115.169 21.6661 114.386 21.6661Z"
        fill="black"/>
      <path
        d="M91.0281 21.3675V10.0608H92.3081V14.8182H92.0521C92.0521 13.78 92.1944 12.884 92.4788 12.1302C92.7775 11.3764 93.2184 10.7933 93.8015 10.3808C94.3846 9.95418 95.1241 9.74084 96.0201 9.74084H96.0841C96.9801 9.74084 97.7197 9.94707 98.3028 10.3595C98.8859 10.772 99.3197 11.3551 99.6041 12.1088C99.8886 12.8626 100.031 13.7657 100.031 14.8182H99.5188C99.5188 13.78 99.661 12.884 99.9455 12.1302C100.244 11.3764 100.685 10.7933 101.268 10.3808C101.865 9.95418 102.612 9.74084 103.508 9.74084H103.572C104.468 9.74084 105.208 9.94707 105.791 10.3595C106.388 10.772 106.829 11.3551 107.113 12.1088C107.412 12.8626 107.561 13.7657 107.561 14.8182V21.3675H105.961V14.4555C105.961 13.46 105.72 12.6706 105.236 12.0875C104.753 11.5044 104.056 11.2128 103.145 11.2128C102.207 11.2128 101.46 11.5186 100.905 12.1302C100.365 12.7275 100.095 13.5382 100.095 14.5622V21.3675H98.4948V14.4555C98.4948 13.46 98.253 12.6706 97.7695 12.0875C97.2859 11.5044 96.589 11.2128 95.6788 11.2128C94.7401 11.2128 93.9935 11.5186 93.4388 12.1302C92.8984 12.7275 92.6281 13.5382 92.6281 14.5622V21.3675H91.0281Z"
        fill="black"/>
      <path
        d="M81.2874 21.7301C80.4625 21.7301 79.7088 21.5807 79.0261 21.2821C78.3576 20.9692 77.7745 20.5425 77.2767 20.0021C76.7932 19.4474 76.4163 18.8216 76.1461 18.1247C75.8901 17.4136 75.7621 16.6598 75.7621 15.8634V15.5647C75.7621 14.7967 75.8901 14.0643 76.1461 13.3674C76.4021 12.6563 76.7648 12.0305 77.2341 11.4901C77.7176 10.9354 78.2936 10.5016 78.9621 10.1887C79.6448 9.86162 80.4056 9.69807 81.2448 9.69807C82.1976 9.69807 83.0368 9.90429 83.7621 10.3167C84.4874 10.7292 85.0705 11.3265 85.5114 12.1087C85.9523 12.8767 86.187 13.8225 86.2154 14.9461L85.5114 13.6234V5.79407H87.1114V21.3674H85.8314V16.3541H86.3434C86.315 17.5345 86.0661 18.5301 85.5968 19.3407C85.1416 20.1372 84.5372 20.7345 83.7834 21.1327C83.0439 21.531 82.2119 21.7301 81.2874 21.7301ZM81.5008 20.3221C82.2688 20.3221 82.9585 20.1514 83.5701 19.8101C84.1959 19.4687 84.6865 18.9852 85.0421 18.3594C85.3976 17.7194 85.5754 16.987 85.5754 16.1621V15.1381C85.5754 14.3416 85.3976 13.6447 85.0421 13.0474C84.6865 12.4358 84.1959 11.9594 83.5701 11.6181C82.9585 11.2767 82.2616 11.1061 81.4794 11.1061C80.6403 11.1061 79.9079 11.3123 79.2821 11.7247C78.6705 12.123 78.1941 12.6705 77.8528 13.3674C77.5256 14.0643 77.3621 14.8465 77.3621 15.7141C77.3621 16.6101 77.5328 17.4065 77.8741 18.1034C78.2154 18.8003 78.699 19.3478 79.3248 19.7461C79.9505 20.1301 80.6759 20.3221 81.5008 20.3221Z"
        fill="black"/>
      <path
        d="M63.33 21.3675V10.0822H64.61V14.8182H64.354C64.354 13.7657 64.5104 12.8626 64.8233 12.1088C65.1362 11.3551 65.6055 10.772 66.2313 10.3595C66.8571 9.94707 67.6464 9.74084 68.5993 9.74084H68.6633C70.0855 9.74084 71.1451 10.1888 71.842 11.0848C72.5388 11.9666 72.8873 13.2111 72.8873 14.8182V21.3675H71.3086V14.4768C71.3086 13.4955 71.0384 12.7062 70.498 12.1088C69.9575 11.5115 69.2037 11.2128 68.2366 11.2128C67.2411 11.2128 66.4375 11.5257 65.826 12.1515C65.2286 12.7631 64.93 13.5737 64.93 14.5835V21.3675H63.33Z"
        fill="black"/>
      <path
        d="M58.2661 21.3674V17.9754H58.0101V13.9648C58.0101 13.1257 57.7897 12.4857 57.3488 12.0448C56.9079 11.5897 56.2252 11.3621 55.3008 11.3621C54.8741 11.3621 54.4404 11.3692 53.9995 11.3834C53.5728 11.3977 53.1604 11.419 52.7621 11.4474C52.3781 11.4617 52.0368 11.483 51.7381 11.5114V10.1034C52.051 10.075 52.371 10.0465 52.6981 10.0181C53.0252 9.98966 53.3595 9.97543 53.7008 9.97543C54.0564 9.96121 54.3977 9.9541 54.7248 9.9541C55.8768 9.9541 56.8012 10.0963 57.4981 10.3808C58.2092 10.6652 58.7284 11.1132 59.0555 11.7248C59.3826 12.3221 59.5461 13.1185 59.5461 14.1141V21.3674H58.2661ZM54.4475 21.6661C53.651 21.6661 52.947 21.5239 52.3355 21.2394C51.7239 20.955 51.2475 20.5425 50.9061 20.0021C50.579 19.4617 50.4155 18.8074 50.4155 18.0394C50.4155 17.2857 50.5861 16.6457 50.9275 16.1194C51.283 15.5932 51.7879 15.195 52.4421 14.9248C53.1106 14.6403 53.9141 14.4981 54.8528 14.4981H58.1595V15.7141H54.7461C53.8501 15.7141 53.1604 15.9345 52.6768 16.3754C52.2075 16.8021 51.9728 17.3639 51.9728 18.0608C51.9728 18.7719 52.2217 19.3408 52.7195 19.7674C53.2172 20.1799 53.8928 20.3861 54.7461 20.3861C55.2724 20.3861 55.7772 20.2937 56.2608 20.1088C56.7444 19.9097 57.1497 19.5825 57.4768 19.1274C57.8039 18.6581 57.9817 18.0181 58.0101 17.2074L58.4795 17.8688C58.4226 18.7079 58.2235 19.4119 57.8821 19.9808C57.5408 20.5354 57.0786 20.955 56.4955 21.2394C55.9124 21.5239 55.2297 21.6661 54.4475 21.6661Z"
        fill="black"/>
      <path
        d="M38.069 21.3674V5.79407H39.669V14.6047L39.1996 14.9674C39.1996 13.915 39.349 12.9976 39.6476 12.2154C39.9605 11.4332 40.4227 10.8287 41.0343 10.4021C41.6601 9.96118 42.4423 9.74073 43.381 9.74073H43.4663C44.8316 9.74073 45.8627 10.1887 46.5596 11.0847C47.2707 11.9807 47.6263 13.2252 47.6263 14.8181V21.3674H46.0476V14.4767C46.0476 13.467 45.7703 12.6705 45.2156 12.0874C44.661 11.5043 43.9143 11.2127 42.9756 11.2127C41.9659 11.2127 41.1623 11.5398 40.565 12.1941C39.9676 12.8341 39.669 13.6803 39.669 14.7327V21.3674H38.069Z"
        fill="black"/>
      <path
        d="M60.281 38.2956L62.5195 28.1532H64.5995L67.1946 38.2956H65.907L63.3119 28.2126H63.7873L61.529 38.2956H60.281ZM59.4292 38.2956V37.0873H61.2319V38.2956H59.4292ZM59.0727 38.2956L56.0418 27.8164H57.4681L60.4593 38.2956H59.0727ZM66.2437 38.2956V37.0873H68.0068V38.2956H66.2437ZM67.0163 38.2956L69.6311 27.8164H70.998L68.3237 38.2956H67.0163Z"
        fill="black"/>
    </symbol>
    <symbol id="close-menu" viewBox="0 0 32 32">
      <path
        d="M26.397 0l-11.315 11.312-11.312-11.312-3.771 3.771 11.312 11.312-11.312 11.312 3.771 3.771 11.312-11.312 11.315 11.312 3.771-3.771-11.312-11.312 11.312-11.312-3.771-3.771z"></path>
    </symbol>
    <symbol id="burger-menu" viewBox="0 0 43 32">
      <path
        d="M0 0h42.667v5.333h-42.667v-5.333zM0 13.333h42.667v5.333h-42.667v-5.333zM0 26.667h42.667v5.333h-42.667v-5.333z"></path>
    </symbol>
    <symbol id="icon-X-Icon" viewBox="0 0 32 32">
      <path
        d="M22.901 5.657h3.68l-8.040 9.037 9.459 12.297h-7.406l-5.801-7.458-6.637 7.458h-3.682l8.6-9.666-9.074-11.668h7.594l5.243 6.817 6.064-6.817zM21.61 24.824h2.039l-13.163-17.115h-2.188l13.312 17.115z"></path>
    </symbol>
    <symbol id="icon-Youtube-Icon" viewBox="0 0 32 32">
      <path
        d="M28.791 9.604c-0.152-0.563-0.449-1.077-0.861-1.49s-0.925-0.711-1.488-0.864c-2.088-0.573-10.441-0.583-10.441-0.583s-8.352-0.009-10.441 0.539c-0.563 0.16-1.075 0.462-1.487 0.878s-0.711 0.929-0.867 1.493c-0.551 2.088-0.556 6.419-0.556 6.419s-0.005 4.352 0.541 6.419c0.307 1.143 1.207 2.045 2.351 2.353 2.109 0.573 10.44 0.583 10.44 0.583s8.353 0.009 10.441-0.537c0.563-0.153 1.077-0.45 1.49-0.862s0.712-0.925 0.866-1.488c0.552-2.087 0.556-6.416 0.556-6.416s0.027-4.353-0.543-6.441zM13.328 20.006l0.007-8 6.943 4.007-6.949 3.993z"></path>
    </symbol>
  </defs>
</svg>
